<svg xmlns="http://www.w3.org/2000/svg" viewBox="0 0 120.39 133.19"><defs><style>.cls-1{fill:#4056a1;}</style></defs><g id="Capa_2" data-name="Capa 2"><g id="Capa_1-2" data-name="Capa 1"><path class="cls-1" d="M63.36.29C46.3-1.28,32,3.54,21.23,14.51.42,35.63-.1,72.67,0,79.89a10.08,10.08,0,0,0,9.24,9.92l3.5.3c.15,1.74.32,3.73.52,5.93a72,72,0,0,1-8.57-.9.5.5,0,0,0-.58.41L2.51,104.4a.5.5,0,0,0,.4.58,84.28,84.28,0,0,0,12,1.11c3.78,14,12.71,15.14,15.38,15.14h.81v1.85a10.11,10.11,0,0,0,10.11,10.11H101.5a10.1,10.1,0,0,0,8.6-15.41c-.68-1.11-3-5.36-3.69-13.71-.35-4,2.27-15.8,10.8-35.6a38.91,38.91,0,0,0,3.06-18.34C119.19,36.62,111.5,4.73,63.36.29ZM34.17,111.23H30.24c-.32,0-3.07-.16-5.07-5.58,8.14-1,14.56-3.33,19.07-7.1,5.22-4.35,7.86-10.32,7.86-17.73a.5.5,0,0,0-.5-.5h-9a.51.51,0,0,0-.5.5c0,4.36-1.39,7.65-4.26,10.05-3.14,2.62-8,4.28-14.55,4.94-.41-4.46-.7-8-.88-10.57a5.14,5.14,0,0,0-5.08-4.77h0l-7.22-.62a.11.11,0,0,1-.1-.11c-.06-4,0-39.54,18.35-58.21C37,12.76,48.47,9,62.44,10.25c39.11,3.61,46.77,27,47.86,40.67A28.59,28.59,0,0,1,108,64.51h0C103.33,75.4,95.6,95.13,96.45,104.93c.89,10.27,3.9,16.08,5.15,18.1a.13.13,0,0,1,0,.11.11.11,0,0,1-.1,0H41.16a.11.11,0,0,1-.11-.11v-5A6.89,6.89,0,0,0,34.17,111.23Z"/><path class="cls-1" d="M69.47,56.52a.51.51,0,0,0,.37-.17l6.07-6.63a.5.5,0,0,0,0-.71c-29.1-26.63-55.25,0-55.51.22a.5.5,0,0,0,0,.71l6.48,6.24a.49.49,0,0,0,.7,0c.79-.82,19.62-19.86,41.56.22A.55.55,0,0,0,69.47,56.52Z"/></g></g></svg>