<svg xmlns="http://www.w3.org/2000/svg" viewBox="0 0 772.71 157.69"><g id="Capa_2" data-name="Capa 2"><g id="Capa_1-2" data-name="Capa 1"><path d="M63.36.29C46.3-1.28,32,3.54,21.23,14.51.42,35.63-.1,72.67,0,79.89a10.08,10.08,0,0,0,9.24,9.92l3.5.3c.15,1.74.32,3.73.52,5.93a72,72,0,0,1-8.57-.9.5.5,0,0,0-.58.41L2.51,104.4a.5.5,0,0,0,.4.58,84.28,84.28,0,0,0,12,1.11c3.78,14,12.71,15.14,15.38,15.14h.81v1.85a10.11,10.11,0,0,0,10.11,10.11H101.5a10.1,10.1,0,0,0,8.6-15.41c-.68-1.11-3-5.36-3.69-13.71-.35-4,2.27-15.8,10.8-35.6a38.91,38.91,0,0,0,3.06-18.34C119.19,36.62,111.5,4.73,63.36.29ZM34.17,111.23H30.24c-.32,0-3.07-.16-5.07-5.58,8.14-1,14.56-3.33,19.07-7.1,5.22-4.35,7.86-10.32,7.86-17.73a.5.5,0,0,0-.5-.5h-9a.51.51,0,0,0-.5.5c0,4.36-1.39,7.65-4.26,10.05-3.14,2.62-8,4.28-14.55,4.94-.41-4.46-.7-8-.88-10.57a5.14,5.14,0,0,0-5.08-4.77h0l-7.22-.62a.11.11,0,0,1-.1-.11c-.06-4,0-39.54,18.35-58.21C37,12.76,48.47,9,62.44,10.25c39.11,3.61,46.77,27,47.86,40.67A28.59,28.59,0,0,1,108,64.51h0C103.33,75.4,95.6,95.13,96.45,104.93c.89,10.27,3.9,16.08,5.15,18.1a.13.13,0,0,1,0,.11.11.11,0,0,1-.1,0H41.16a.11.11,0,0,1-.11-.11v-5A6.89,6.89,0,0,0,34.17,111.23Z"/><path d="M69.47,56.52a.51.51,0,0,0,.37-.17l6.07-6.63a.5.5,0,0,0,0-.71c-29.1-26.63-55.25,0-55.51.22a.5.5,0,0,0,0,.71l6.48,6.24a.49.49,0,0,0,.7,0c.79-.82,19.62-19.86,41.56.22A.55.55,0,0,0,69.47,56.52Z"/><path d="M198.91,119.72l-7.62.72-1-6.28V88.8a23.05,23.05,0,0,0-1.43-8L187.4,77.7a21.89,21.89,0,0,0-8.19-8.32,23.15,23.15,0,0,0-11.8-3A39.51,39.51,0,0,0,154,68.52a23.06,23.06,0,0,0-9.54,6.07,12.7,12.7,0,0,0-3.54,8.66,6.43,6.43,0,0,0,11,4.51,6.28,6.28,0,0,0,1.85-4.51c0-.58.56-1.29,1.62-2.06a17.65,17.65,0,0,1,5-2.26,25.18,25.18,0,0,1,7.3-1,10.28,10.28,0,0,1,7.66,3,10.82,10.82,0,0,1,3,7.85v.54c-.15.3-.8,1-3.56,1.82A61.46,61.46,0,0,1,163,92.85a15.29,15.29,0,0,1-2.37.25c-9.33,1-15.95,3.42-19.67,7.15a18,18,0,0,0-5.64,13,15.91,15.91,0,0,0,3.39,9.89,22.37,22.37,0,0,0,9.28,6.91,34,34,0,0,0,13.32,2.5,25.89,25.89,0,0,0,10.42-2.18,30.43,30.43,0,0,0,8.41-5.49c1.78,5.09,4.74,7.67,8.81,7.67h.45l10.6-1.52a.49.49,0,0,0,.42-.54l-1-10.35A.51.51,0,0,0,198.91,119.72Zm-37.56,1.14a21,21,0,0,1-10.17-2.27c-2.67-1.48-4-3.21-4-5.31a7.44,7.44,0,0,1,.7-3.25c.46-1,1.76-2,3.87-3s5.57-1.85,10.07-2.34a20.16,20.16,0,0,0,2.42-.26,63.27,63.27,0,0,0,14-2.09v1.09a16.78,16.78,0,0,1-2.27,8.21,19.31,19.31,0,0,1-6.16,6.64A15,15,0,0,1,161.35,120.86Z"/><path d="M269.77,70.66a25.65,25.65,0,0,0-14.54-4.32,34.6,34.6,0,0,0-14.89,3.74V66.84a.55.55,0,0,0-.15-.36.54.54,0,0,0-.37-.14l-11.72.38h-6a.5.5,0,0,0-.5.5V77.57a.5.5,0,0,0,.5.5h6.44v68.17l-2.66.11h-6.94a.5.5,0,0,0-.5.5v10.34a.5.5,0,0,0,.5.5H251.7a.5.5,0,0,0,.5-.5V146.85a.5.5,0,0,0-.5-.5H243l-2.68-.11v-18a25.79,25.79,0,0,0,14.39,4.35,26.48,26.48,0,0,0,14.79-4.31,29.53,29.53,0,0,0,10.26-11.8,37.72,37.72,0,0,0,3.71-16.94,38.7,38.7,0,0,0-3.64-17A29.38,29.38,0,0,0,269.77,70.66Zm-6.44,47.45a14.52,14.52,0,0,1-8.6,2.75,14.29,14.29,0,0,1-8.85-2.93,16.39,16.39,0,0,1-5.54-8.14V83.51c5.28-3.61,10.29-5.44,14.89-5.44A14.14,14.14,0,0,1,267,84c3,4,4.57,9.2,4.57,15.54a26.84,26.84,0,0,1-2.17,11A18.15,18.15,0,0,1,263.33,118.11Z"/><path d="M352.15,118.41l-8.95-5.55a.49.49,0,0,0-.69.16l-2.53,4a7.7,7.7,0,0,1-3.61,3,12.18,12.18,0,0,1-4.67,1c-2.44,0-4.43-1.32-6.07-4a20,20,0,0,1-2.51-10.46v-27h26.5a.5.5,0,0,0,.5-.5V68.36a.5.5,0,0,0-.5-.5h-26.5V52.46a.5.5,0,0,0-.5-.5H312a.5.5,0,0,0-.5.5v15.4h-9.6a.5.5,0,0,0-.5.5V79a.5.5,0,0,0,.5.5h9.34v27a33,33,0,0,0,2.63,13.38,22.39,22.39,0,0,0,7.3,9.36,17.57,17.57,0,0,0,10.51,3.37,22.29,22.29,0,0,0,10.39-2.51,20.09,20.09,0,0,0,7.7-6.93l2.52-4a.47.47,0,0,0,.07-.38A.48.48,0,0,0,352.15,118.41Z"/><path d="M417.27,118.41l-9-5.55a.49.49,0,0,0-.69.16l-2.52,4a7.73,7.73,0,0,1-3.62,3,12.18,12.18,0,0,1-4.67,1c-2.44,0-4.43-1.32-6.07-4a20,20,0,0,1-2.51-10.46v-27h26.5a.5.5,0,0,0,.5-.5V68.36a.5.5,0,0,0-.5-.5h-26.5V52.46a.5.5,0,0,0-.5-.5h-10.6a.5.5,0,0,0-.5.5v15.4H367a.5.5,0,0,0-.5.5V79a.51.51,0,0,0,.5.5h9.35v27A33,33,0,0,0,379,119.85a22.39,22.39,0,0,0,7.3,9.36,17.59,17.59,0,0,0,10.51,3.37,22.29,22.29,0,0,0,10.39-2.51,20.09,20.09,0,0,0,7.7-6.93l2.53-4a.51.51,0,0,0-.16-.69Z"/><path d="M447.54,61.54a7.06,7.06,0,0,0,5.15-2.17,7.21,7.21,0,0,0,2.16-5.27,7.17,7.17,0,0,0-7.31-7.31,7.31,7.31,0,0,0-5.27,2.09,7,7,0,0,0-2.17,5.22,7.39,7.39,0,0,0,7.44,7.44Z"/><path d="M462.81,121h-6.55l-2.67-.1V67.1a.51.51,0,0,0-.15-.36.46.46,0,0,0-.36-.14l-11.73.25H435.3a.5.5,0,0,0-.5.5V77.7a.5.5,0,0,0,.5.5h6.31v42.68l-2.53.1h-6.94a.51.51,0,0,0-.5.5v10.35a.5.5,0,0,0,.5.5h30.67a.5.5,0,0,0,.5-.5V121.48A.51.51,0,0,0,462.81,121Z"/><path d="M532,118.41l-9-5.55a.49.49,0,0,0-.69.16l-2.52,4a7.71,7.71,0,0,1-3.62,3,12.18,12.18,0,0,1-4.67,1c-2.44,0-4.43-1.32-6.07-4a20,20,0,0,1-2.51-10.46v-27h26.5a.5.5,0,0,0,.5-.5V68.36a.5.5,0,0,0-.5-.5h-26.5V52.46a.5.5,0,0,0-.5-.5h-10.6a.5.5,0,0,0-.5.5v15.4h-9.6a.5.5,0,0,0-.5.5V79a.51.51,0,0,0,.5.5h9.34v27a33.12,33.12,0,0,0,2.63,13.39,22.51,22.51,0,0,0,7.3,9.35,17.57,17.57,0,0,0,10.51,3.37,22.26,22.26,0,0,0,10.39-2.51,20.09,20.09,0,0,0,7.7-6.93l2.53-4a.51.51,0,0,0-.16-.69Z"/><path d="M614.77,119.22l-6.69,1.18-.3-1.87-.5-5V66.72a.48.48,0,0,0-.15-.36.52.52,0,0,0-.36-.14l-11.6.25H589a.5.5,0,0,0-.5.5V77.32a.5.5,0,0,0,.5.5h6.44V96.25a26.21,26.21,0,0,1-2.79,11.7,25.83,25.83,0,0,1-7.36,9.16A15.16,15.16,0,0,1,576,120.6c-4.37,0-7.31-.77-8.72-2.3a8.74,8.74,0,0,1-2.13-6.16V66.72a.48.48,0,0,0-.16-.36.51.51,0,0,0-.36-.14l-11.72.25h-6.06a.5.5,0,0,0-.5.5V77.32a.51.51,0,0,0,.5.5h6.44v34.45c0,6.26,2,11.25,6,14.82s9.6,5.37,16.67,5.37a25.31,25.31,0,0,0,11.27-2.7,31.55,31.55,0,0,0,9.14-6.95,14.38,14.38,0,0,0,3.33,6.77,8.48,8.48,0,0,0,6.42,2.88h.46l10.48-1.77a.51.51,0,0,0,.4-.59l-2.14-10.47A.52.52,0,0,0,614.77,119.22Z"/><path d="M694,119.35l-6.57,1.17a19.71,19.71,0,0,0-.42-2l-.37-4.87v-72a.48.48,0,0,0-.15-.36.44.44,0,0,0-.36-.14l-11.72.38h-7.07a.5.5,0,0,0-.5.5V52.33a.5.5,0,0,0,.5.5h7.45V70.21a34.49,34.49,0,0,0-14.89-3.61,25.9,25.9,0,0,0-14.54,4.24,28.94,28.94,0,0,0-10.08,11.81,38.48,38.48,0,0,0-3.64,16.88,38.1,38.1,0,0,0,3.71,17,29,29,0,0,0,10.27,11.81,26.77,26.77,0,0,0,14.78,4.24,26,26,0,0,0,9.2-1.67,25.42,25.42,0,0,0,7.41-4.32,12,12,0,0,0,3.27,4.18,8,8,0,0,0,5.11,1.81h.46l10.47-1.77a.49.49,0,0,0,.33-.21.49.49,0,0,0,.08-.39l-2.15-10.47A.51.51,0,0,0,694,119.35ZM659.91,78.2c4.68,0,9.69,1.83,14.89,5.43v26.16a17.51,17.51,0,0,1-5.67,8.21,13.89,13.89,0,0,1-8.72,3,14.51,14.51,0,0,1-8.6-2.74,18.2,18.2,0,0,1-6-7.62,27.16,27.16,0,0,1-2.17-11.09c0-6.34,1.54-11.54,4.57-15.47A14.19,14.19,0,0,1,659.91,78.2Z"/><path d="M772.69,112.64a.48.48,0,0,0-.24-.3l-9.34-5.17a.5.5,0,0,0-.38,0,.55.55,0,0,0-.3.24l-2.26,4.16c-3.59,6.28-9.86,9.46-18.62,9.46a17.36,17.36,0,0,1-12.34-4.66,20.24,20.24,0,0,1-6-11.88h43.2a5.6,5.6,0,0,0,4.08-1.72,5.74,5.74,0,0,0,1.73-4.2,34.7,34.7,0,0,0-3.85-16.45,28.69,28.69,0,0,0-10.72-11.36,29.9,29.9,0,0,0-15.59-4.11,30.37,30.37,0,0,0-15.58,4.1,30.77,30.77,0,0,0-11.16,11.35,34.48,34.48,0,0,0-4.42,16.47v1.13a35.79,35.79,0,0,0,4,17,30.23,30.23,0,0,0,11,11.8,29.57,29.57,0,0,0,15.72,4.3,35.49,35.49,0,0,0,17.14-4,28.58,28.58,0,0,0,11.56-11.48l2.39-4.16A.49.49,0,0,0,772.69,112.64ZM730.06,82.25a18.46,18.46,0,0,1,12-4,17.65,17.65,0,0,1,11.73,4,18.41,18.41,0,0,1,6,10.54H723.63A19.23,19.23,0,0,1,730.06,82.25Z"/></g></g></svg>