<svg xmlns="http://www.w3.org/2000/svg" viewBox="0 0 787.15 133.19"><defs><style>.cls-1{fill:#4658ff;}</style></defs><g id="Capa_2" data-name="Capa 2"><g id="Capa_1-2" data-name="Capa 1"><path class="cls-1" d="M63.36.29C46.3-1.28,32,3.54,21.23,14.51.42,35.63-.1,72.67,0,79.89a10.08,10.08,0,0,0,9.24,9.92l3.5.3c.15,1.74.32,3.73.52,5.93a72,72,0,0,1-8.57-.9.5.5,0,0,0-.58.41L2.51,104.4a.5.5,0,0,0,.4.58,84.28,84.28,0,0,0,12,1.11c3.78,14,12.71,15.14,15.38,15.14h.81v1.85a10.11,10.11,0,0,0,10.11,10.11H101.5a10.1,10.1,0,0,0,8.6-15.41c-.68-1.11-3-5.36-3.69-13.71-.35-4,2.27-15.8,10.8-35.6a38.91,38.91,0,0,0,3.06-18.34C119.19,36.62,111.5,4.73,63.36.29ZM34.17,111.23H30.24c-.32,0-3.07-.16-5.07-5.58,8.14-1,14.56-3.33,19.07-7.1,5.22-4.35,7.86-10.32,7.86-17.73a.5.5,0,0,0-.5-.5h-9a.51.51,0,0,0-.5.5c0,4.36-1.39,7.65-4.26,10.05-3.14,2.62-8,4.28-14.55,4.94-.41-4.46-.7-8-.88-10.57a5.14,5.14,0,0,0-5.08-4.77h0l-7.22-.62a.11.11,0,0,1-.1-.11c-.06-4,0-39.54,18.35-58.21C37,12.76,48.47,9,62.44,10.25c39.11,3.61,46.77,27,47.86,40.67A28.59,28.59,0,0,1,108,64.51h0C103.33,75.4,95.6,95.13,96.45,104.93c.89,10.27,3.9,16.08,5.15,18.1a.13.13,0,0,1,0,.11.11.11,0,0,1-.1,0H41.16a.11.11,0,0,1-.11-.11v-5A6.89,6.89,0,0,0,34.17,111.23Z"/><path class="cls-1" d="M69.47,56.52a.51.51,0,0,0,.37-.17l6.07-6.63a.5.5,0,0,0,0-.71c-29.1-26.63-55.25,0-55.51.22a.5.5,0,0,0,0,.71l6.48,6.24a.49.49,0,0,0,.7,0c.79-.82,19.62-19.86,41.56.22A.55.55,0,0,0,69.47,56.52Z"/><path class="cls-1" d="M213.35,86.92l-7.61.71-1.05-6.27V56a23.16,23.16,0,0,0-1.44-8l-1.4-3.06a21.94,21.94,0,0,0-8.2-8.33,23.21,23.21,0,0,0-11.8-3,39.31,39.31,0,0,0-13.42,2.18,23.28,23.28,0,0,0-9.54,6.06,12.75,12.75,0,0,0-3.53,8.66,6.44,6.44,0,0,0,11,4.52,6.33,6.33,0,0,0,1.84-4.52c0-.57.56-1.28,1.62-2a17.06,17.06,0,0,1,5-2.26,24.79,24.79,0,0,1,7.3-1,10.31,10.31,0,0,1,7.65,3,10.79,10.79,0,0,1,3,7.86v.53c-.15.31-.8,1-3.56,1.83a62.3,62.3,0,0,1-11.67,1.69,15.09,15.09,0,0,1-2.37.24c-9.33,1-16,3.43-19.67,7.15a18,18,0,0,0-5.63,13,15.9,15.9,0,0,0,3.38,9.89,22.49,22.49,0,0,0,9.29,6.91,33.94,33.94,0,0,0,13.32,2.5,25.94,25.94,0,0,0,10.42-2.19,30.27,30.27,0,0,0,8.4-5.48c1.78,5.09,4.74,7.67,8.81,7.67h.45l10.6-1.51a.51.51,0,0,0,.43-.54l-1-10.35A.51.51,0,0,0,213.35,86.92ZM175.8,88.05a20.84,20.84,0,0,1-10.17-2.27c-2.67-1.47-4-3.21-4-5.3a7.49,7.49,0,0,1,.71-3.26c.45-.94,1.75-2,3.87-3s5.57-1.86,10.06-2.35a19.63,19.63,0,0,0,2.43-.25,63.1,63.1,0,0,0,14-2.1v1.09a16.67,16.67,0,0,1-2.27,8.21,19.13,19.13,0,0,1-6.15,6.65A15.05,15.05,0,0,1,175.8,88.05Z"/><path class="cls-1" d="M284.21,37.85a25.63,25.63,0,0,0-14.53-4.31,34.61,34.61,0,0,0-14.9,3.74V34a.5.5,0,0,0-.51-.5l-11.72.38h-6.06a.5.5,0,0,0-.5.5V44.77a.5.5,0,0,0,.5.5h6.44v68.17l-2.65.1h-6.94a.5.5,0,0,0-.5.5v10.35a.5.5,0,0,0,.5.5h32.81a.5.5,0,0,0,.5-.5V114a.51.51,0,0,0-.5-.5h-8.69l-2.68-.1v-18a25.81,25.81,0,0,0,14.39,4.35A26.45,26.45,0,0,0,284,95.47a29.52,29.52,0,0,0,10.27-11.81,37.85,37.85,0,0,0,3.71-16.94,38.77,38.77,0,0,0-3.65-17A29.3,29.3,0,0,0,284.21,37.85Zm-6.43,47.46a14.54,14.54,0,0,1-8.61,2.74,14.26,14.26,0,0,1-8.84-2.92A16.39,16.39,0,0,1,254.78,77V50.71c5.28-3.61,10.29-5.44,14.9-5.44a14.12,14.12,0,0,1,11.71,5.92c3,4,4.57,9.2,4.57,15.53a27.08,27.08,0,0,1-2.16,11A18.29,18.29,0,0,1,277.78,85.31Z"/><path class="cls-1" d="M357.7,37.85a25.64,25.64,0,0,0-14.54-4.31,34.6,34.6,0,0,0-14.89,3.74V34a.5.5,0,0,0-.16-.36.46.46,0,0,0-.36-.14L316,33.92H310a.5.5,0,0,0-.5.5V44.77a.51.51,0,0,0,.5.5h6.44v68.17l-2.65.1h-6.94a.5.5,0,0,0-.5.5v10.35a.5.5,0,0,0,.5.5h32.81a.5.5,0,0,0,.5-.5V114a.5.5,0,0,0-.5-.5h-8.69l-2.67-.1v-18a25.76,25.76,0,0,0,14.39,4.35,26.42,26.42,0,0,0,14.78-4.31,29.44,29.44,0,0,0,10.27-11.81,37.85,37.85,0,0,0,3.71-16.94,38.76,38.76,0,0,0-3.64-17A29.45,29.45,0,0,0,357.7,37.85Zm-6.44,47.46a14.51,14.51,0,0,1-8.6,2.74,14.28,14.28,0,0,1-8.85-2.92A16.37,16.37,0,0,1,328.27,77V50.71c5.27-3.61,10.29-5.44,14.89-5.44a14.14,14.14,0,0,1,11.72,5.92c3,4,4.56,9.2,4.56,15.53a26.92,26.92,0,0,1-2.16,11A18.21,18.21,0,0,1,351.26,85.31Z"/><path class="cls-1" d="M431.71,85.6l-9-5.55a.51.51,0,0,0-.69.16l-2.52,4a7.68,7.68,0,0,1-3.62,3,12.32,12.32,0,0,1-4.66,1c-2.45,0-4.43-1.33-6.08-4.05a20.16,20.16,0,0,1-2.51-10.47v-27h26.5a.5.5,0,0,0,.5-.5V35.55a.5.5,0,0,0-.5-.5h-26.5V19.65a.5.5,0,0,0-.5-.5h-10.6a.5.5,0,0,0-.5.5v15.4h-9.59a.5.5,0,0,0-.5.5v10.6a.5.5,0,0,0,.5.5h9.34v27a32.92,32.92,0,0,0,2.63,13.39,22.34,22.34,0,0,0,7.29,9.35,17.61,17.61,0,0,0,10.52,3.38,22.26,22.26,0,0,0,10.38-2.52,20,20,0,0,0,7.71-6.93l2.52-4a.49.49,0,0,0,.06-.37A.52.52,0,0,0,431.71,85.6Z"/><path class="cls-1" d="M462,28.74a7.06,7.06,0,0,0,5.15-2.17,7.21,7.21,0,0,0,2.17-5.28A7.19,7.19,0,0,0,462,14a7.34,7.34,0,0,0-5.27,2.1,7,7,0,0,0-2.17,5.21A7.41,7.41,0,0,0,462,28.74Z"/><path class="cls-1" d="M477.25,88.18h-6.54L468,88.07V34.29a.51.51,0,0,0-.15-.36.54.54,0,0,0-.36-.14L455.8,34h-6.06a.5.5,0,0,0-.5.5V44.89a.5.5,0,0,0,.5.5h6.32V88.07l-2.53.11h-6.94a.5.5,0,0,0-.5.5V99a.5.5,0,0,0,.5.5h30.66a.5.5,0,0,0,.5-.5V88.68A.5.5,0,0,0,477.25,88.18Z"/><path class="cls-1" d="M546.41,85.6l-9-5.55a.51.51,0,0,0-.69.16l-2.52,4a7.73,7.73,0,0,1-3.62,3,12.28,12.28,0,0,1-4.66,1c-2.45,0-4.43-1.33-6.07-4.05a20,20,0,0,1-2.52-10.47v-27h26.5a.5.5,0,0,0,.5-.5V35.55a.5.5,0,0,0-.5-.5h-26.5V19.65a.5.5,0,0,0-.5-.5h-10.6a.5.5,0,0,0-.5.5v15.4h-9.59a.5.5,0,0,0-.5.5v10.6a.5.5,0,0,0,.5.5h9.34v27a32.92,32.92,0,0,0,2.63,13.39,22.42,22.42,0,0,0,7.29,9.35A17.61,17.61,0,0,0,526,99.78a22.26,22.26,0,0,0,10.38-2.52,20,20,0,0,0,7.71-6.93l2.52-4a.49.49,0,0,0,.06-.37A.52.52,0,0,0,546.41,85.6Z"/><path class="cls-1" d="M629.22,86.42l-6.7,1.17-.29-1.86-.5-5V33.91a.48.48,0,0,0-.16-.35.51.51,0,0,0-.36-.15l-11.59.26h-6.19a.5.5,0,0,0-.5.5V44.51a.5.5,0,0,0,.5.5h6.44V63.44a26.17,26.17,0,0,1-2.78,11.7,25.89,25.89,0,0,1-7.37,9.17,15.13,15.13,0,0,1-9.28,3.49c-4.38,0-7.31-.77-8.72-2.3a8.76,8.76,0,0,1-2.14-6.16V33.91a.47.47,0,0,0-.15-.35.55.55,0,0,0-.36-.15l-11.73.26h-6.05a.5.5,0,0,0-.5.5V44.51a.5.5,0,0,0,.5.5h6.44V79.47c0,6.26,2,11.25,6,14.82s9.6,5.36,16.68,5.36A25.3,25.3,0,0,0,601.7,97a31.38,31.38,0,0,0,9.14-7,14.61,14.61,0,0,0,3.33,6.78,8.47,8.47,0,0,0,6.42,2.87h.47l10.47-1.77a.52.52,0,0,0,.33-.21.53.53,0,0,0,.08-.39l-2.15-10.47A.5.5,0,0,0,629.22,86.42Z"/><path class="cls-1" d="M708.46,86.55l-6.58,1.17a16.64,16.64,0,0,0-.42-2l-.36-4.87V8.8a.52.52,0,0,0-.16-.36.46.46,0,0,0-.36-.14l-11.72.38h-7.07a.5.5,0,0,0-.5.5V19.53a.51.51,0,0,0,.5.5h7.45V37.4a34.63,34.63,0,0,0-14.89-3.61A25.87,25.87,0,0,0,659.82,38a28.83,28.83,0,0,0-10.09,11.81,38.61,38.61,0,0,0-3.64,16.87,38.25,38.25,0,0,0,3.71,17,29,29,0,0,0,10.27,11.8,26.72,26.72,0,0,0,14.78,4.25,26,26,0,0,0,9.2-1.67,25.45,25.45,0,0,0,7.41-4.33A12,12,0,0,0,694.73,98a8.06,8.06,0,0,0,5.11,1.81h.46L710.78,98a.44.44,0,0,0,.32-.21.47.47,0,0,0,.08-.38L709,86.94A.51.51,0,0,0,708.46,86.55ZM674.35,45.39c4.69,0,9.7,1.83,14.89,5.44V77a17.43,17.43,0,0,1-5.67,8.2,13.9,13.9,0,0,1-8.72,3,14.54,14.54,0,0,1-8.6-2.75,18.15,18.15,0,0,1-6-7.62,27.32,27.32,0,0,1-2.16-11.09c0-6.33,1.53-11.54,4.56-15.47A14.19,14.19,0,0,1,674.35,45.39Z"/><path class="cls-1" d="M787.13,79.84a.52.52,0,0,0-.23-.31l-9.34-5.17a.51.51,0,0,0-.38,0,.48.48,0,0,0-.3.24l-2.27,4.15C771,85,764.76,88.18,756,88.18a17.42,17.42,0,0,1-12.34-4.66,20.38,20.38,0,0,1-6-11.88h43.21a5.56,5.56,0,0,0,4.07-1.73,5.7,5.7,0,0,0,1.73-4.2,34.72,34.72,0,0,0-3.84-16.45A28.78,28.78,0,0,0,772.08,37.9a29.88,29.88,0,0,0-15.59-4.11,30.28,30.28,0,0,0-15.58,4.11,30.7,30.7,0,0,0-11.16,11.35,34.56,34.56,0,0,0-4.42,16.46v1.14a35.84,35.84,0,0,0,4,17,30.23,30.23,0,0,0,11,11.8A29.48,29.48,0,0,0,756,99.9a35.5,35.5,0,0,0,17.15-4,28.56,28.56,0,0,0,11.55-11.48l2.4-4.17A.5.5,0,0,0,787.13,79.84Zm-42.62-30.4a18.43,18.43,0,0,1,12-4,17.65,17.65,0,0,1,11.73,4,18.39,18.39,0,0,1,6,10.54H738.07A19.31,19.31,0,0,1,744.51,49.44Z"/></g></g></svg>